<?xml version="1.0" encoding="UTF-8" standalone="no"?>
<!DOCTYPE svg PUBLIC "-//W3C//DTD SVG 1.1//EN"
 "http://www.w3.org/Graphics/SVG/1.1/DTD/svg11.dtd">
<!-- Generated by graphviz version 2.44.1 (20200629.0846)
 -->
<!-- Title: g Pages: 1 -->
<svg width="467pt" height="779pt"
 viewBox="0.00 0.00 467.00 778.80" xmlns="http://www.w3.org/2000/svg" xmlns:xlink="http://www.w3.org/1999/xlink">
<g id="graph0" class="graph" transform="scale(1 1) rotate(0) translate(4 774.8)">
<title>g</title>
<polygon fill="white" stroke="transparent" points="-4,4 -4,-774.8 463,-774.8 463,4 -4,4"/>
<g id="clust1" class="cluster">
<title>cluster_109392</title>
<polygon fill="#ececec" stroke="black" points="8,-8 8,-762.8 451,-762.8 451,-8 8,-8"/>
<text text-anchor="middle" x="25.72" y="-746.2" font-family="Times New Roman,serif" font-size="14.00">nsu</text>
</g>
<g id="clust2" class="cluster">
<title>cluster_759124297</title>
<polygon fill="#d8d8d8" stroke="black" points="16,-16 16,-730 443,-730 443,-16 16,-16"/>
<text text-anchor="middle" x="55.5" y="-713.4" font-family="Times New Roman,serif" font-size="14.00">khlebnikov</text>
</g>
<!-- Baker1442557012 -->
<g id="node1" class="node">
<title>Baker1442557012</title>
<polygon fill="#ffffff" stroke="transparent" points="434.5,-349.6 279.5,-349.6 279.5,-203.6 434.5,-203.6 434.5,-349.6"/>
<text text-anchor="start" x="285" y="-332" font-family="Times New Roman,serif" font-size="14.00">(C)Baker</text>
<text text-anchor="start" x="285" y="-308" font-family="Times New Roman,serif" font-size="14.00">&#45; &#160;&#160;experience: int [1]</text>
<text text-anchor="start" x="284.6" y="-284" font-family="Times New Roman,serif" font-size="14.00">&#45; &#160;&#160;isWorking: boolean [1]</text>
<text text-anchor="start" x="285" y="-260" font-family="Times New Roman,serif" font-size="14.00">&#45; &#160;&#160;name: String [0..1]</text>
<text text-anchor="start" x="285" y="-236" font-family="Times New Roman,serif" font-size="14.00">+ call(): Void</text>
<text text-anchor="start" x="285" y="-212" font-family="Times New Roman,serif" font-size="14.00">&#45; takeOrder()</text>
<polygon fill="black" stroke="black" points="280,-324.6 280,-324.6 435,-324.6 435,-324.6 280,-324.6"/>
<polygon fill="black" stroke="black" points="280,-252.6 280,-252.6 435,-252.6 435,-252.6 280,-252.6"/>
<polygon fill="none" stroke="black" points="279.5,-203.6 279.5,-349.6 434.5,-349.6 434.5,-203.6 279.5,-203.6"/>
</g>
<!-- Deliveryman1442557012 -->
<g id="node2" class="node">
<title>Deliveryman1442557012</title>
<polygon fill="#ffffff" stroke="transparent" points="261.5,-361.6 24.5,-361.6 24.5,-191.6 261.5,-191.6 261.5,-361.6"/>
<text text-anchor="start" x="30" y="-344" font-family="Times New Roman,serif" font-size="14.00">(C)Deliveryman</text>
<text text-anchor="start" x="30" y="-320" font-family="Times New Roman,serif" font-size="14.00">&#45; &#160;&#160;bagCapacity: int [1]</text>
<text text-anchor="start" x="30" y="-296" font-family="Times New Roman,serif" font-size="14.00">&#45; &#160;&#160;isWorking: boolean [1]</text>
<text text-anchor="start" x="30" y="-272" font-family="Times New Roman,serif" font-size="14.00">&#45; &#160;&#160;name: String [0..1]</text>
<text text-anchor="start" x="29.67" y="-248" font-family="Times New Roman,serif" font-size="14.00">&#45; &#160;&#160;orders: BlockingQueue&lt;Order&gt; [0..*]</text>
<text text-anchor="start" x="30" y="-224" font-family="Times New Roman,serif" font-size="14.00">+ call(): Void</text>
<text text-anchor="start" x="30" y="-200" font-family="Times New Roman,serif" font-size="14.00">&#45; deliver()</text>
<polygon fill="black" stroke="black" points="25,-336.6 25,-336.6 262,-336.6 262,-336.6 25,-336.6"/>
<polygon fill="black" stroke="black" points="25,-240.6 25,-240.6 262,-240.6 262,-240.6 25,-240.6"/>
<polygon fill="none" stroke="black" points="24.5,-191.6 24.5,-361.6 261.5,-361.6 261.5,-191.6 24.5,-191.6"/>
</g>
<!-- Order1442557012 -->
<g id="node3" class="node">
<title>Order1442557012</title>
<polygon fill="#ffffff" stroke="transparent" points="229,-122 57,-122 57,-24 229,-24 229,-122"/>
<text text-anchor="start" x="62" y="-104.4" font-family="Times New Roman,serif" font-size="14.00">(C)Order</text>
<text text-anchor="start" x="61.94" y="-80.4" font-family="Times New Roman,serif" font-size="14.00">&#45; &#160;&#160;customer: Customer [0..1]</text>
<text text-anchor="start" x="62" y="-56.4" font-family="Times New Roman,serif" font-size="14.00">&#45; &#160;&#160;number: long [1]</text>
<text text-anchor="start" x="62" y="-32.4" font-family="Times New Roman,serif" font-size="14.00">&#45; &#160;&#160;status: Status [0..1]</text>
<polygon fill="black" stroke="black" points="57,-97 57,-97 229,-97 229,-97 57,-97"/>
<polygon fill="none" stroke="black" points="57,-24 57,-122 229,-122 229,-24 57,-24"/>
</g>
<!-- Deliveryman1442557012&#45;&gt;Order1442557012 -->
<g id="edge1" class="edge">
<title>Deliveryman1442557012&#45;&gt;Order1442557012</title>
<path fill="none" stroke="black" d="M143,-191.56C143,-171.6 143,-150.73 143,-132.22"/>
<polygon fill="black" stroke="black" points="146.5,-132.19 143,-122.19 139.5,-132.19 146.5,-132.19"/>
<text text-anchor="middle" x="160.49" y="-161" font-family="Times New Roman,serif" font-size="14.00">orders</text>
<text text-anchor="middle" x="160.49" y="-144.2" font-family="Times New Roman,serif" font-size="14.00">[0..*]</text>
</g>
<!-- Pizzeria1442557012 -->
<g id="node4" class="node">
<title>Pizzeria1442557012</title>
<polygon fill="#ffffff" stroke="transparent" points="410,-697.2 142,-697.2 142,-431.2 410,-431.2 410,-697.2"/>
<text text-anchor="start" x="147" y="-679.6" font-family="Times New Roman,serif" font-size="14.00">(C)Pizzeria</text>
<text text-anchor="start" x="147" y="-655.6" font-family="Times New Roman,serif" font-size="14.00">&#45; &#160;&#160;bakers: List&lt;Baker&gt; [0..*]</text>
<text text-anchor="start" x="147" y="-631.6" font-family="Times New Roman,serif" font-size="14.00">&#45; &#160;&#160;bakersPool: ExecutorService [0..1]</text>
<text text-anchor="start" x="147" y="-607.6" font-family="Times New Roman,serif" font-size="14.00">&#45; &#160;&#160;deliverymen: List&lt;Deliveryman&gt; [0..*]</text>
<text text-anchor="start" x="147" y="-583.6" font-family="Times New Roman,serif" font-size="14.00">&#45; &#160;&#160;deliverymenPool: ExecutorService [0..1]</text>
<text text-anchor="start" x="147" y="-559.6" font-family="Times New Roman,serif" font-size="14.00"># putToQueue(order: Order)</text>
<text text-anchor="start" x="147" y="-535.6" font-family="Times New Roman,serif" font-size="14.00"># putToStorage(order: Order)</text>
<text text-anchor="start" x="147" y="-511.6" font-family="Times New Roman,serif" font-size="14.00">+ start()</text>
<text text-anchor="start" x="147" y="-487.6" font-family="Times New Roman,serif" font-size="14.00">+ stop(seconds: long)</text>
<text text-anchor="start" x="147" y="-463.6" font-family="Times New Roman,serif" font-size="14.00"># takeFromQueue(): Order</text>
<text text-anchor="start" x="146.61" y="-439.6" font-family="Times New Roman,serif" font-size="14.00"># takeFromStorage(number: int): List&lt;Order&gt;</text>
<polygon fill="black" stroke="black" points="142,-672.2 142,-672.2 410,-672.2 410,-672.2 142,-672.2"/>
<polygon fill="black" stroke="black" points="142,-576.2 142,-576.2 410,-576.2 410,-576.2 142,-576.2"/>
<polygon fill="none" stroke="black" points="142,-431.2 142,-697.2 410,-697.2 410,-431.2 142,-431.2"/>
</g>
<!-- Deliveryman1442557012&#45;&gt;Pizzeria1442557012 -->
<g id="edge2" class="edge">
<title>Deliveryman1442557012&#45;&gt;Pizzeria1442557012</title>
<path fill="none" stroke="black" d="M164.47,-361.94C171.49,-389.51 177.51,-413.2 177.51,-413.2 177.51,-413.2 179.76,-416.62 183.58,-422.43"/>
<polygon fill="black" stroke="black" points="180.78,-424.56 189.2,-431 186.64,-420.72 180.78,-424.56"/>
<text text-anchor="middle" x="264.74" y="-392.2" font-family="Times New Roman,serif" font-size="14.00">deliver() &#45;&gt; takeFromStorage()</text>
</g>
<!-- Pizzeria1442557012&#45;&gt;Baker1442557012 -->
<g id="edge3" class="edge">
<title>Pizzeria1442557012&#45;&gt;Baker1442557012</title>
<path fill="none" stroke="black" d="M345.63,-431C351.35,-420.12 355,-413.2 355,-413.2 355,-413.2 355.37,-388.35 355.79,-359.93"/>
<polygon fill="black" stroke="black" points="359.29,-359.82 355.94,-349.77 352.29,-359.71 359.29,-359.82"/>
<text text-anchor="middle" x="373.27" y="-400.6" font-family="Times New Roman,serif" font-size="14.00">bakers</text>
<text text-anchor="middle" x="373.27" y="-383.8" font-family="Times New Roman,serif" font-size="14.00">[0..*]</text>
</g>
<!-- Pizzeria1442557012&#45;&gt;Deliveryman1442557012 -->
<g id="edge4" class="edge">
<title>Pizzeria1442557012&#45;&gt;Deliveryman1442557012</title>
<path fill="none" stroke="black" d="M141.9,-440.27C135.69,-434.59 132,-431.2 132,-431.2 132,-431.2 96.02,-413.2 96.02,-413.2 96.02,-413.2 96.02,-379.6 96.02,-379.6 96.02,-379.6 97.52,-376.35 99.98,-371.01"/>
<polygon fill="black" stroke="black" points="103.2,-372.38 104.21,-361.83 96.84,-369.45 103.2,-372.38"/>
<text text-anchor="middle" x="131.99" y="-400.6" font-family="Times New Roman,serif" font-size="14.00">deliverymen</text>
<text text-anchor="middle" x="131.99" y="-383.8" font-family="Times New Roman,serif" font-size="14.00">[0..*]</text>
</g>
<!-- PizzeriaTest1442557012 -->
<g id="node5" class="node">
<title>PizzeriaTest1442557012</title>
<polygon fill="#ffffff" stroke="transparent" points="123.5,-589.2 24.5,-589.2 24.5,-539.2 123.5,-539.2 123.5,-589.2"/>
<text text-anchor="start" x="30" y="-571.6" font-family="Times New Roman,serif" font-size="14.00">(C)PizzeriaTest</text>
<text text-anchor="start" x="29.94" y="-547.6" font-family="Times New Roman,serif" font-size="14.00">+ pizzeriaTest()</text>
<polygon fill="black" stroke="black" points="25,-564.2 25,-564.2 124,-564.2 124,-564.2 25,-564.2"/>
<polygon fill="none" stroke="black" points="24.5,-539.2 24.5,-589.2 123.5,-589.2 123.5,-539.2 24.5,-539.2"/>
</g>
</g>
</svg>
